<?xml version="1.0" encoding="utf-8"?>
<!-- Generator: Adobe Illustrator 16.0.0, SVG Export Plug-In . SVG Version: 6.00 Build 0)  -->
<!DOCTYPE svg PUBLIC "-//W3C//DTD SVG 1.1//EN" "http://www.w3.org/Graphics/SVG/1.1/DTD/svg11.dtd">
<svg version="1.1" id="Layer_1" xmlns="http://www.w3.org/2000/svg" xmlns:xlink="http://www.w3.org/1999/xlink" x="0px" y="0px"
	 width="509px" height="473px" viewBox="0 0 509 473" enable-background="new 0 0 509 473" xml:space="preserve">
<path fill="#E25B64" d="M352.891,76.162c0,8.395-8.178,15.203-18.313,15.203c-10.094,0-18.298-6.808-18.298-15.203
	c0-8.379,8.204-15.188,18.298-15.188C344.713,60.973,352.891,67.782,352.891,76.162z"/>
<path fill="#E25B64" d="M414.558,118.409c0,8.398-8.187,15.209-18.313,15.209c-10.093,0-18.303-6.812-18.303-15.209
	c0-8.378,8.21-15.19,18.303-15.19C406.371,103.218,414.558,110.031,414.558,118.409z"/>
<path fill="#E25B64" d="M376.676,46.775c0,3.348-3.255,6.059-7.297,6.059c-4.026,0-7.281-2.71-7.281-6.059
	c0-3.338,3.255-6.052,7.281-6.052C373.421,40.723,376.676,43.437,376.676,46.775z"/>
<path fill="#E25B64" d="M453.79,151.215c0,5.421-5.287,9.796-11.799,9.796c-6.515,0-11.81-4.375-11.81-9.796
	c0-5.402,5.295-9.789,11.81-9.789C448.503,141.427,453.79,145.813,453.79,151.215z"/>
<path fill="#E25B64" d="M416.085,69.586c0,5.421-5.287,9.796-11.799,9.796c-6.515,0-11.81-4.375-11.81-9.796
	c0-5.402,5.295-9.789,11.81-9.789C410.798,59.797,416.085,64.184,416.085,69.586z"/>
<path fill="#E25B64" d="M334.005,36.352c0,5.763-3.949,10.426-8.872,10.426c-4.885,0-8.854-4.663-8.854-10.426
	c0-5.756,3.969-10.414,8.854-10.414C330.056,25.938,334.005,30.596,334.005,36.352z"/>
<path fill="#E25B64" d="M398.028,46.778c0,0,1.406,0,3.131,0c1.714,0,3.121,0,3.121,0s-1.407,0-3.121,0
	C399.435,46.778,398.028,46.778,398.028,46.778z"/>
<path fill="#E25B64" d="M293.535,40.722c0-2.878-2.766-5.206-6.165-5.206c-3.417,0-6.184,2.327-6.184,5.206
	c0,2.877,2.767,5.208,6.184,5.208C290.77,45.93,293.535,43.599,293.535,40.722z"/>
<path fill="#E25B64" d="M373.271,78.467c0-2.415-2.323-4.369-5.185-4.369c-2.849,0-5.173,1.954-5.173,4.369
	c0,2.416,2.324,4.363,5.173,4.363C370.947,82.83,373.271,80.882,373.271,78.467z"/>
<path fill="#E25B64" d="M435.36,103.221c0-2.415-2.323-4.369-5.185-4.369c-2.849,0-5.173,1.954-5.173,4.369
	c0,2.416,2.324,4.363,5.173,4.363C433.037,107.584,435.36,105.637,435.36,103.221z"/>
<path fill="#E25B64" d="M410.46,156.432c0-2.881-2.771-5.212-6.186-5.212c-3.399,0-6.172,2.332-6.172,5.212
	c0,2.882,2.772,5.206,6.172,5.206C407.688,161.637,410.46,159.313,410.46,156.432z"/>
<path fill="#E25B64" d="M293.539,74.102c0-2.881-2.771-5.212-6.186-5.212c-3.399,0-6.172,2.332-6.172,5.212
	c0,2.882,2.772,5.206,6.172,5.206C290.768,79.307,293.539,76.983,293.539,74.102z"/>
<path fill="#E25B64" d="M442.516,183.969c-43.898,0-79.484-36.929-79.484-82.484c0-0.014,0.001-0.027,0.001-0.042
	c-8.985,3.553-18.768,5.526-29.017,5.526c-36.239,0-66.756-24.415-76.056-57.687c-0.976-0.014-1.949-0.037-2.929-0.037
	c-111.009,0-201,89.991-201,201c0,111.009,89.991,201,201,201c111.009,0,201-89.991,201-201c0-23.247-3.96-45.566-11.22-66.336
	C444.047,183.931,443.285,183.969,442.516,183.969z"/>
</svg>
