<?xml version="1.0" encoding="utf-8"?>
<!-- Generator: Adobe Illustrator 16.0.0, SVG Export Plug-In . SVG Version: 6.00 Build 0)  -->
<!DOCTYPE svg PUBLIC "-//W3C//DTD SVG 1.1//EN" "http://www.w3.org/Graphics/SVG/1.1/DTD/svg11.dtd">
<svg version="1.1" id="Layer_1" xmlns="http://www.w3.org/2000/svg" xmlns:xlink="http://www.w3.org/1999/xlink" x="0px" y="0px"
	 width="250px" height="289px" viewBox="0 0 250 289" enable-background="new 0 0 250 289" xml:space="preserve">
<circle fill="#E25A64" cx="125" cy="122.5" r="114.5"/>
<path fill="#2B2C3C" d="M235.01,127.255c0-60.616-49.138-109.755-109.755-109.755C64.639,17.5,15.5,66.639,15.5,127.255
	c0,56.092,42.079,102.35,96.391,108.943l16.104,47.302l10.775-47.318C193.01,229.52,235.01,183.295,235.01,127.255z"/>
<path fill="#E15B64" d="M151.504,52.443c0,0,0.446,0,0.995,0c0.544,0,0.991,0,0.991,0s-0.447,0-0.991,0
	C151.95,52.443,151.504,52.443,151.504,52.443z"/>
<g opacity="0.9">
	<path fill="#FFFFFF" d="M159.463,139.148c-2.621-2.623-5.62-4.776-8.993-6.462c-3.372-1.687-6.458-2.779-9.274-3.278
		c-2.804-0.499-5.522-0.75-8.148-0.75c2.5,0,5.059-0.283,7.684-0.845c2.622-0.563,5.433-1.686,8.431-3.373
		c2.995-1.686,5.651-3.773,7.966-6.276c2.305-2.497,4.211-5.928,5.709-10.302c1.256-3.655,1.836-7.795,1.989-12.236
		c-11.37-1.561-20.569-11.182-23.128-23.892c-2.182,0.652-4.419,1.106-6.768,1.106c-9.461,0-17.77-5.646-22.607-14.174
		c-1.713,0.15-3.779,0.419-6.35,0.856c-2.934,0.5-5.686,1.343-8.244,2.531c-2.559,1.187-5.027,2.653-7.397,4.401
		c-2.371,1.75-4.283,4.122-5.718,7.119c-1.435,2.999-2.15,6.371-2.15,10.116v82.439c0,2.622,0.278,5.373,0.845,8.242
		c0.557,2.877,1.655,6.124,3.276,9.744c1.622,3.624,3.748,6.835,6.37,9.652c2.623,2.804,6.273,5.149,10.965,7.02
		c4.676,1.875,10.019,2.811,16.015,2.811c6.868,0,12.674-0.283,17.426-0.838c4.74-0.569,9.236-1.63,13.489-3.191
		c4.244-1.557,7.582-3.71,10.025-6.461c2.43-2.748,4.336-6.371,5.712-10.867c1.368-4.497,2.06-9.866,2.06-16.111
		c0-5.997-0.873-11.331-2.623-16.023C164.27,145.428,162.089,141.772,159.463,139.148z M110.753,95.12
		c0.244-1.997,0.62-3.993,1.124-5.994c0.497-1.997,1.466-3.714,2.906-5.153c1.435-1.434,3.154-2.153,5.149-2.153
		c2.875,0,5.304,0.374,7.307,1.124c1.996,0.747,3.497,1.592,4.495,2.527c0.994,0.939,1.745,2.314,2.252,4.123
		c0.496,1.812,0.775,3.278,0.838,4.402c0.065,1.124,0.098,2.688,0.098,4.685c0,4.249-2.527,9.059-7.593,14.424
		c-5.052,5.373-10.646,8.057-16.765,8.057v-18.736v-2.06C110.442,98.869,110.5,97.12,110.753,95.12z M137.358,170.535
		c-0.879,3.306-1.85,5.743-2.908,7.299c-1.061,1.564-2.496,2.751-4.305,3.568c-1.815,0.813-3.215,1.277-4.218,1.4
		c-1.001,0.122-2.369,0.188-4.123,0.188c-2.744,0-4.935-0.594-6.556-1.784c-1.628-1.184-2.778-3.616-3.463-7.3
		c-0.691-3.682-1.066-7.093-1.124-10.214c-0.064-3.121-0.098-8.368-0.098-15.738c0-4.245,0-7.554,0-9.931l4.496-0.185
		c1.875,0,3.716,0.126,5.524,0.374c1.809,0.251,3.877,0.813,6.19,1.686c2.306,0.88,4.303,2.028,5.995,3.463
		c1.68,1.441,3.086,3.47,4.211,6.091c1.124,2.622,1.686,5.687,1.686,9.181C138.667,163.259,138.228,167.225,137.358,170.535z"/>
	<path fill="#FFFFFF" d="M137.177,61.771c0,2.665-2.597,4.826-5.816,4.826c-3.204,0-5.808-2.161-5.808-4.826
		c0-2.66,2.604-4.821,5.808-4.821C134.58,56.95,137.177,59.111,137.177,61.771z"/>
	<path fill="#FFFFFF" d="M156.75,75.183c0,2.666-2.597,4.828-5.813,4.828c-3.204,0-5.809-2.162-5.809-4.828
		c0-2.661,2.604-4.823,5.809-4.823C154.153,70.36,156.75,72.522,156.75,75.183z"/>
	<path fill="#FFFFFF" d="M158.946,52.681c0,1.719-1.672,3.11-3.746,3.11c-2.066,0-3.738-1.392-3.738-3.11
		c0-1.714,1.672-3.107,3.738-3.107C157.274,49.574,158.946,50.966,158.946,52.681z"/>
	<path fill="#FFFFFF" d="M169.206,85.597c0,1.721-1.679,3.11-3.746,3.11c-2.066,0-3.749-1.389-3.749-3.11
		c0-1.714,1.683-3.107,3.749-3.107C167.527,82.49,169.206,83.883,169.206,85.597z"/>
	<path fill="#FFFFFF" d="M131.179,49.133c0,1.83-1.253,3.31-2.816,3.31c-1.549,0-2.81-1.48-2.81-3.31
		c0-1.828,1.261-3.306,2.81-3.306C129.926,45.828,131.179,47.306,131.179,49.133z"/>
	<path fill="#FFFFFF" d="M163.677,66.597c0-0.913-0.881-1.653-1.966-1.653c-1.078,0-1.955,0.74-1.955,1.653
		c0,0.915,0.877,1.653,1.955,1.653C162.796,68.25,163.677,67.512,163.677,66.597z"/>
	<path fill="#FFFFFF" d="M120.293,54.923c0-0.914-0.878-1.653-1.956-1.653c-1.085,0-1.963,0.739-1.963,1.653
		c0,0.913,0.878,1.653,1.963,1.653C119.415,56.576,120.293,55.836,120.293,54.923z"/>
	<path fill="#FFFFFF" d="M144.371,62.092c0-0.915-0.876-1.655-1.961-1.655c-1.079,0-1.959,0.74-1.959,1.655s0.88,1.653,1.959,1.653
		C143.495,63.745,144.371,63.006,144.371,62.092z"/>
</g>
</svg>
