<?xml version="1.0" encoding="utf-8"?>
<!-- Generator: Adobe Illustrator 16.0.0, SVG Export Plug-In . SVG Version: 6.00 Build 0)  -->
<!DOCTYPE svg PUBLIC "-//W3C//DTD SVG 1.1//EN" "http://www.w3.org/Graphics/SVG/1.1/DTD/svg11.dtd">
<svg version="1.1" id="Layer_1" xmlns="http://www.w3.org/2000/svg" xmlns:xlink="http://www.w3.org/1999/xlink" x="0px" y="0px"
	 width="241px" height="255px" viewBox="0 0 241 255" enable-background="new 0 0 241 255" xml:space="preserve">
<path fill="#342F3A" d="M225.421,112.506c0-59.157-47.957-107.113-107.114-107.113c-59.154,0-107.112,47.956-107.112,107.113
	c0,52.314,37.514,95.844,87.102,105.22l20.863,32.467c0,0,14.822-24.667,15.509-31.816
	C186.06,210.502,225.421,166.1,225.421,112.506z"/>
<path fill="#FFFFFF" d="M152.765,118.828c-2.393-2.394-5.131-4.359-8.204-5.896c-3.079-1.541-5.9-2.538-8.472-2.993
	c-2.558-0.455-5.04-0.686-7.433-0.686c2.278,0,4.616-0.257,7.009-0.771c2.393-0.514,4.96-1.538,7.694-3.081
	c2.738-1.538,5.159-3.443,7.273-5.728c2.105-2.277,3.845-5.413,5.212-9.405c1.145-3.335,1.673-7.115,1.813-11.167
	c-10.375-1.426-18.777-10.206-21.106-21.808c-1.993,0.596-4.032,1.01-6.182,1.01c-8.63,0-16.215-5.151-20.632-12.937
	c-1.564,0.137-3.45,0.381-5.794,0.781c-2.681,0.456-5.191,1.227-7.527,2.311c-2.337,1.083-4.588,2.421-6.751,4.018
	c-2.164,1.596-3.911,3.762-5.22,6.496c-1.311,2.738-1.963,5.813-1.963,9.235v75.245c0,2.393,0.255,4.902,0.771,7.521
	c0.509,2.626,1.509,5.59,2.993,8.896c1.476,3.306,3.418,6.237,5.812,8.809c2.399,2.558,5.729,4.699,10.01,6.409
	c4.268,1.709,9.141,2.564,14.619,2.564c6.269,0,11.571-0.257,15.903-0.766c4.324-0.519,8.432-1.486,12.312-2.911
	c3.876-1.422,6.924-3.389,9.149-5.899c2.217-2.508,3.96-5.813,5.212-9.919c1.255-4.104,1.884-9.004,1.884-14.704
	c0-5.475-0.798-10.343-2.397-14.624C157.15,124.563,155.157,121.228,152.765,118.828z M108.3,78.644
	c0.228-1.824,0.571-3.646,1.027-5.472c0.456-1.821,1.337-3.39,2.658-4.702c1.31-1.312,2.876-1.966,4.7-1.966
	c2.619,0,4.84,0.34,6.668,1.026c1.821,0.681,3.188,1.452,4.105,2.307c0.906,0.855,1.593,2.111,2.052,3.762
	c0.45,1.654,0.705,2.993,0.767,4.019c0.057,1.026,0.086,2.455,0.086,4.276c0,3.878-2.303,8.269-6.927,13.166
	c-4.611,4.905-9.718,7.354-15.303,7.354V85.31v-1.878C108.017,82.065,108.071,80.47,108.3,78.644z M132.584,147.478
	c-0.802,3.017-1.685,5.243-2.654,6.662c-0.964,1.429-2.273,2.511-3.927,3.257c-1.656,0.742-2.937,1.166-3.851,1.279
	c-0.913,0.109-2.163,0.17-3.763,0.17c-2.504,0-4.501-0.542-5.985-1.628c-1.484-1.08-2.535-3.3-3.159-6.664
	c-0.631-3.361-0.974-6.476-1.026-9.325c-0.057-2.848-0.09-7.635-0.09-14.363c0-3.874,0-6.896,0-9.064l4.104-0.168
	c1.712,0,3.393,0.111,5.046,0.34c1.649,0.229,3.534,0.743,5.648,1.538c2.103,0.802,3.925,1.853,5.469,3.162
	c1.533,1.315,2.824,3.166,3.848,5.56c1.026,2.393,1.537,5.191,1.537,8.38C133.781,140.838,133.38,144.456,132.584,147.478z"/>
<path fill="#FFFFFF" d="M132.42,48.203c0,2.432-2.371,4.405-5.307,4.405c-2.925,0-5.303-1.973-5.303-4.405
	c0-2.427,2.378-4.4,5.303-4.4C130.049,43.803,132.42,45.776,132.42,48.203z"/>
<path fill="#FFFFFF" d="M150.288,60.446c0,2.432-2.371,4.405-5.309,4.405c-2.925,0-5.302-1.973-5.302-4.405
	c0-2.428,2.377-4.404,5.302-4.404C147.917,56.042,150.288,58.018,150.288,60.446z"/>
<path fill="#FFFFFF" d="M152.291,39.906c0,1.569-1.526,2.839-3.421,2.839c-1.887,0-3.414-1.271-3.414-2.839
	c0-1.564,1.527-2.835,3.414-2.835C150.765,37.07,152.291,38.342,152.291,39.906z"/>
<ellipse fill="#FFFFFF" cx="158.237" cy="69.95" rx="3.419" ry="2.838"/>
<path fill="#FFFFFF" d="M126.948,36.669c0,1.669-1.145,3.021-2.573,3.021c-1.412,0-2.564-1.351-2.564-3.021
	c0-1.668,1.152-3.019,2.564-3.019C125.804,33.65,126.948,35.001,126.948,36.669z"/>
<path fill="#FFFFFF" d="M145.498,39.69c0,0,0.408,0,0.91,0c0.491,0,0.9,0,0.9,0s-0.409,0-0.9,0
	C145.906,39.69,145.498,39.69,145.498,39.69z"/>
<ellipse fill="#FFFFFF" cx="154.818" cy="52.609" rx="1.791" ry="1.508"/>
<ellipse fill="#FFFFFF" cx="115.222" cy="41.953" rx="1.788" ry="1.509"/>
<ellipse fill="#FFFFFF" cx="137.199" cy="48.497" rx="1.793" ry="1.51"/>
</svg>
