<?xml version="1.0" encoding="utf-8"?>
<!-- Generator: Adobe Illustrator 16.0.0, SVG Export Plug-In . SVG Version: 6.00 Build 0)  -->
<!DOCTYPE svg PUBLIC "-//W3C//DTD SVG 1.1//EN" "http://www.w3.org/Graphics/SVG/1.1/DTD/svg11.dtd">
<svg version="1.1" id="Layer_1" xmlns="http://www.w3.org/2000/svg" xmlns:xlink="http://www.w3.org/1999/xlink" x="0px" y="0px"
	 width="191px" height="230px" viewBox="0 0 191 230" enable-background="new 0 0 191 230" xml:space="preserve">
<g>
	<path fill="#FFFFFF" d="M130.985,130.231c-2.767-2.766-5.931-5.039-9.489-6.818s-6.816-2.932-9.789-3.459
		c-2.958-0.526-5.828-0.792-8.596-0.792c2.637,0,5.337-0.298,8.105-0.891c2.767-0.594,5.732-1.779,8.896-3.559
		c3.162-1.779,5.964-3.982,8.405-6.623c2.434-2.634,4.444-6.255,6.025-10.87c1.324-3.857,1.938-8.226,2.1-12.911
		c-11.998-1.646-21.706-11.799-24.404-25.211c-2.305,0.688-4.664,1.168-7.145,1.168c-9.98,0-18.748-5.957-23.854-14.956
		c-1.807,0.158-3.987,0.442-6.7,0.902c-3.096,0.529-5.999,1.419-8.699,2.671c-2.7,1.253-5.304,2.8-7.806,4.646
		c-2.501,1.845-4.52,4.348-6.033,7.511c-1.514,3.164-2.27,6.723-2.27,10.675v86.988c0,2.767,0.293,5.669,0.892,8.697
		c0.588,3.035,1.746,6.461,3.457,10.281c1.711,3.823,3.954,7.212,6.721,10.185c2.769,2.958,6.62,5.434,11.57,7.408
		c4.935,1.978,10.572,2.965,16.898,2.965c7.248,0,13.375-0.298,18.387-0.884c5.003-0.601,9.747-1.72,14.234-3.367
		c4.479-1.643,8.002-3.915,10.579-6.818c2.563-2.898,4.575-6.723,6.026-11.467c1.445-4.744,2.175-10.41,2.175-17
		c0-6.328-0.921-11.957-2.768-16.907C136.058,136.858,133.753,133.002,130.985,130.231z M79.586,83.774
		c0.258-2.107,0.653-4.215,1.186-6.325c0.525-2.106,1.548-3.919,3.067-5.437c1.514-1.515,3.328-2.273,5.433-2.273
		c3.033,0,5.598,0.395,7.71,1.187c2.107,0.788,3.689,1.68,4.744,2.667c1.05,0.99,1.842,2.442,2.374,4.351
		c0.523,1.911,0.818,3.458,0.887,4.645c0.067,1.187,0.101,2.837,0.101,4.943c0,4.483-2.665,9.56-8.01,15.221
		c-5.33,5.669-11.235,8.502-17.69,8.502V91.483v-2.173C79.258,87.73,79.318,85.885,79.586,83.774z M107.658,163.352
		c-0.928,3.488-1.95,6.06-3.068,7.702c-1.118,1.65-2.632,2.902-4.54,3.765c-1.915,0.858-3.395,1.348-4.451,1.477
		c-1.058,0.129-2.502,0.199-4.351,0.199c-2.896,0-5.207-0.626-6.918-1.882c-1.719-1.249-2.932-3.816-3.654-7.703
		c-0.729-3.886-1.125-7.484-1.186-10.778c-0.068-3.293-0.104-8.829-0.104-16.605c0-4.479,0-7.972,0-10.479l4.744-0.195
		c1.979,0,3.922,0.133,5.83,0.394c1.908,0.266,4.09,0.858,6.53,1.779c2.434,0.929,4.54,2.141,6.327,3.654
		c1.771,1.521,3.258,3.662,4.444,6.428c1.186,2.767,1.779,6.001,1.779,9.688C109.042,155.675,108.577,159.859,107.658,163.352z"/>
	<path fill="#FFFFFF" d="M107.467,48.585c0,2.813-2.74,5.092-6.135,5.092c-3.382,0-6.13-2.279-6.13-5.092
		c0-2.808,2.748-5.088,6.13-5.088C104.727,43.497,107.467,45.777,107.467,48.585z"/>
	<path fill="#FFFFFF" d="M128.123,62.737c0,2.813-2.74,5.094-6.135,5.094c-3.382,0-6.13-2.281-6.13-5.094
		c0-2.808,2.748-5.089,6.13-5.089C125.383,57.648,128.123,59.93,128.123,62.737z"/>
	<path fill="#FFFFFF" d="M130.44,38.992c0,1.814-1.765,3.282-3.955,3.282c-2.181,0-3.945-1.468-3.945-3.282
		c0-1.809,1.765-3.278,3.945-3.278C128.676,35.714,130.44,37.184,130.44,38.992z"/>
	<path fill="#FFFFFF" d="M141.267,73.726c0,1.815-1.772,3.281-3.955,3.281c-2.181,0-3.954-1.466-3.954-3.281
		c0-1.809,1.773-3.279,3.954-3.279C139.494,70.446,141.267,71.917,141.267,73.726z"/>
	<path fill="#FFFFFF" d="M101.141,35.25c0,1.93-1.322,3.492-2.973,3.492c-1.636,0-2.966-1.563-2.966-3.492
		c0-1.929,1.33-3.488,2.966-3.488C99.818,31.762,101.141,33.321,101.141,35.25z"/>
	<path fill="#FFFFFF" d="M122.587,38.742c0,0,0.471,0,1.05,0c0.572,0,1.044,0,1.044,0s-0.472,0-1.044,0
		C123.058,38.742,122.587,38.742,122.587,38.742z"/>
	<path fill="#FFFFFF" d="M135.432,53.677c0-0.963-0.929-1.744-2.074-1.744c-1.139,0-2.064,0.781-2.064,1.744
		c0,0.966,0.926,1.744,2.064,1.744C134.503,55.421,135.432,54.643,135.432,53.677z"/>
	<path fill="#FFFFFF" d="M89.653,41.359c0-0.966-0.927-1.744-2.065-1.744c-1.146,0-2.071,0.778-2.071,1.744
		c0,0.963,0.926,1.744,2.071,1.744C88.727,43.104,89.653,42.322,89.653,41.359z"/>
	<path fill="#FFFFFF" d="M115.061,48.924c0-0.966-0.927-1.746-2.072-1.746c-1.138,0-2.066,0.78-2.066,1.746
		c0,0.965,0.929,1.744,2.066,1.744C114.134,50.668,115.061,49.889,115.061,48.924z"/>
</g>
</svg>
