<?xml version="1.0" encoding="utf-8"?>
<!-- Generator: Adobe Illustrator 16.0.0, SVG Export Plug-In . SVG Version: 6.00 Build 0)  -->
<!DOCTYPE svg PUBLIC "-//W3C//DTD SVG 1.1//EN" "http://www.w3.org/Graphics/SVG/1.1/DTD/svg11.dtd">
<svg version="1.1" id="Layer_1" xmlns="http://www.w3.org/2000/svg" xmlns:xlink="http://www.w3.org/1999/xlink" x="0px" y="0px"
	 width="322px" height="219px" viewBox="0 0 322 219" enable-background="new 0 0 322 219" xml:space="preserve">
<g>
	<path fill="#2C2C3D" d="M61.818,94.559c3.461,0,6.356,0.067,8.687,0.2c2.329,0.134,4.276,0.384,5.841,0.749
		c1.563,0.367,2.779,0.749,3.645,1.148c0.864,0.399,1.514,1.033,1.947,1.897c0.432,0.866,0.682,1.647,0.749,2.346
		c0.065,0.699,0.1,1.747,0.1,3.145c0,2.663-0.916,4.66-2.746,5.991c-1.831,1.333-4.909,1.997-9.235,1.997
		c-2.464,0-4.511,0.1-6.141,0.299c-1.632,0.2-3.162,0.566-4.593,1.099c-1.433,0.533-2.496,1.332-3.195,2.396
		c-0.698,1.065-1.048,2.463-1.048,4.193c0,3.195,0.998,5.326,2.995,6.39c1.997,1.066,5.008,1.598,9.036,1.598
		c4.026,0,7.021,0.534,8.986,1.598c1.962,1.065,2.945,3.195,2.945,6.39c0,3.262-0.949,5.409-2.846,6.44
		c-1.897,1.033-4.942,1.548-9.136,1.548c-3.929,0-6.74,0.399-8.438,1.198c-1.697,0.799-2.546,2.396-2.546,4.793
		c0,4.792,4.394,7.456,13.18,7.987c0.199,0,0.499,0.035,0.898,0.1c2.063,0.067,3.545,0.149,4.443,0.25
		c0.898,0.1,1.963,0.299,3.195,0.599c1.23,0.299,2.097,0.683,2.596,1.148c0.499,0.467,0.932,1.148,1.298,2.047
		c0.365,0.899,0.549,2.014,0.549,3.345c0,2.93-1.747,4.743-5.241,5.441c-3.495,0.699-9.236,1.048-17.224,1.048
		c-1.198,0-2.097,0-2.695,0c-2.531,0-4.644-0.15-6.341-0.449c-1.697-0.3-3.362-0.949-4.992-1.947
		c-1.632-0.998-2.93-2.429-3.894-4.293c-0.966-1.863-1.832-4.359-2.597-7.489c-0.766-3.128-1.314-6.955-1.647-11.482
		c-0.334-4.526-0.499-9.95-0.499-16.275c0-7.055,0.832-13.113,2.496-18.172c1.663-5.058,3.66-8.652,5.991-10.783
		c2.329-2.13,4.675-3.76,7.039-4.893c2.361-1.131,4.376-1.663,6.04-1.598H61.818z"/>
	<path fill="#2C2C3D" d="M90.475,130.204c2.262,0.866,4.144,2.396,5.642,4.593c1.497,2.197,2.562,4.527,3.194,6.989
		c0.632,2.463,1.164,4.877,1.598,7.239c0.433,2.364,0.864,4.311,1.298,5.841c0.433,1.532,1.015,2.296,1.748,2.296
		c0.132-0.599,0.314-1.463,0.549-2.596c0.232-1.131,0.781-3.145,1.647-6.041c0.864-2.896,1.747-5.492,2.646-7.788
		s2.047-4.493,3.445-6.59c1.397-2.097,2.795-3.41,4.193-3.944c1.862-0.532,3.311-0.599,4.343-0.2
		c1.031,0.399,1.613,1.332,1.747,2.795c0.133,1.465,0.033,3.113-0.299,4.942c-0.334,1.832-0.898,3.878-1.697,6.141
		c-0.934,2.663-2.015,5.426-3.245,8.287c-1.232,2.863-2.646,5.875-4.243,9.036c-1.598,3.162-3.313,5.758-5.143,7.788
		c-1.831,2.031-3.512,3.078-5.042,3.145c-1.864,0-3.362-0.05-4.493-0.15c-1.133-0.1-2.23-0.382-3.295-0.849
		c-1.065-0.465-1.897-0.999-2.496-1.598c-0.6-0.599-1.216-1.563-1.848-2.896c-0.633-1.331-1.182-2.729-1.647-4.193
		c-0.466-1.463-1.032-3.495-1.697-6.09c-2.93-11.116-4.228-18.438-3.894-21.966C83.95,130.004,86.281,128.606,90.475,130.204z"/>
	<path fill="#2C2C3D" d="M155.973,156.164c0.6-0.066,1.381-0.166,2.347-0.3c0.964-0.132,2.462-0.299,4.493-0.499
		c2.029-0.2,3.727-0.232,5.092-0.1c1.363,0.134,2.047,0.434,2.047,0.899c0,10.783-7.355,16.175-22.065,16.175
		c-4.728,0-8.521-0.317-11.383-0.949c-2.862-0.632-5.276-1.78-7.238-3.444c-1.965-1.663-3.329-3.894-4.094-6.69
		c-0.767-2.795-1.148-6.49-1.148-11.083c0-13.313,7.321-19.969,21.966-19.969c2.596,0,4.825,0.05,6.689,0.15
		c1.863,0.1,3.76,0.267,5.691,0.499c1.93,0.234,3.545,0.583,4.843,1.048c1.298,0.466,2.496,1.048,3.595,1.748
		c1.098,0.699,1.896,1.597,2.396,2.696c0.5,1.098,0.749,2.38,0.749,3.844c0,2.131-1.016,4.011-3.045,5.642
		c-2.031,1.632-4.478,2.845-7.339,3.644c-2.862,0.799-5.708,1.348-8.537,1.647c-2.83,0.3-5.176,0.317-7.039,0.05
		c-1.332-0.132-2.296-0.449-2.896-0.948c-0.599-0.5-0.883-1.014-0.849-1.548c0.033-0.532,0.183-1.064,0.449-1.597
		c0.266-0.532,0.532-0.964,0.799-1.298l0.499-0.599c0.399,0.067,0.915,0.134,1.548,0.2c0.632,0.067,1.747,0.117,3.345,0.15
		c1.598,0.034,3.012-0.05,4.244-0.25c1.23-0.2,2.346-0.649,3.345-1.348c0.998-0.699,1.497-1.613,1.497-2.746
		c0-0.931-0.149-1.73-0.449-2.396c-0.299-0.665-0.599-1.164-0.898-1.498c-0.3-0.332-0.815-0.599-1.548-0.799
		c-0.733-0.2-1.265-0.299-1.598-0.299s-0.965,0-1.896,0c-0.933,0-1.465,0-1.598,0c-0.799,0-1.747,0.35-2.846,1.048
		s-2.196,1.665-3.295,2.896c-1.099,1.232-1.981,2.962-2.646,5.192c-0.666,2.231-0.898,4.677-0.699,7.339
		c0.266,4.328,1.248,7.705,2.945,10.134c1.697,2.431,4.01,3.644,6.939,3.644c2.861,0,5.157-2.029,6.89-6.09
		C156.205,157.96,156.438,156.563,155.973,156.164z"/>
	<path fill="#2C2C3D" d="M181.333,129.205c1.93,0,3.577,0.217,4.942,0.649c1.363,0.434,2.412,0.966,3.146,1.598
		c0.731,0.633,1.298,1.332,1.697,2.097c0.399,0.766,0.614,1.548,0.649,2.346c0.032,0.799,0.032,1.515,0,2.147
		c-0.035,0.633-0.117,1.148-0.25,1.547l-0.2,0.599c0.2-0.265,0.5-0.682,0.899-1.248c0.399-0.564,1.248-1.53,2.546-2.896
		c1.298-1.363,2.611-2.579,3.943-3.645c1.331-1.064,2.961-2.029,4.893-2.896c1.93-0.864,3.827-1.298,5.691-1.298
		c4.726,0,8.237,2.047,10.534,6.141c2.296,4.094,3.444,9.37,3.444,15.826c0,1.931,0,3.429,0,4.493c0,1.066-0.034,2.414-0.1,4.044
		c-0.067,1.632-0.185,2.913-0.35,3.844c-0.167,0.933-0.367,1.997-0.6,3.195c-0.233,1.198-0.549,2.131-0.948,2.796
		c-0.399,0.666-0.883,1.332-1.447,1.997c-0.566,0.667-1.233,1.133-1.997,1.398c-0.767,0.265-1.647,0.399-2.646,0.399
		c-3.861,0-6.474-0.582-7.838-1.748c-1.365-1.164-2.047-3.31-2.047-6.44c0-0.731,0.065-2.412,0.2-5.042
		c0.133-2.629,0.215-5.108,0.249-7.438c0.033-2.329,0-4.726-0.1-7.189c-0.1-2.462-0.384-4.443-0.849-5.941
		c-0.467-1.498-1.099-2.212-1.896-2.146c-1.932,0-3.662,0.766-5.192,2.296c-1.532,1.532-2.746,3.429-3.645,5.691
		c-0.898,2.264-1.582,4.61-2.047,7.039c-0.467,2.431-0.699,4.677-0.699,6.739c0,4.46-0.732,7.922-2.196,10.384
		c-1.465,2.463-4.061,3.694-7.788,3.694c-1.931,0-3.494-0.714-4.692-2.146c-1.198-1.431-2.014-3.395-2.446-5.891
		c-0.434-2.497-0.716-5.458-0.849-8.887c-0.134-3.427-0.134-7.139,0-11.132c0.133-5.592,0.864-9.418,2.196-11.482
		C176.873,130.637,178.803,129.472,181.333,129.205z"/>
	<path fill="#2C2C3D" d="M238.445,100.25c3.927,0,6.423,2.363,7.489,7.089c3.527,0.067,5.823,0.367,6.889,0.898
		c1.064,0.534,1.563,1.565,1.498,3.095c0,0.134,0.016,0.399,0.05,0.799c0.033,0.399,0.033,0.684,0,0.849
		c-0.034,0.167-0.117,0.434-0.25,0.799c-0.134,0.367-0.349,0.583-0.648,0.649c-0.3,0.067-0.733,0.2-1.298,0.399
		c-0.566,0.2-1.315,0.267-2.247,0.2c-0.933-0.065-2.031-0.1-3.295-0.1c0.065,3.129-0.167,8.821-0.698,17.074
		c-0.534,8.254-0.733,14.512-0.6,18.771c0.133,4.727,0.532,8.537,1.198,11.433c0.665,2.896,1.298,4.61,1.897,5.142l0.898,0.898
		c-0.135,0.399-0.234,0.933-0.3,1.598c-0.067,0.666-0.134,1.115-0.199,1.348c-0.067,0.234-0.284,0.534-0.649,0.899
		c-0.366,0.365-0.916,0.564-1.647,0.599c-0.733,0.033-1.765,0.016-3.095-0.05c-1.333-0.067-2.996-0.2-4.993-0.399
		c-1.996-0.267-3.679-0.781-5.042-1.547c-1.365-0.765-2.463-1.68-3.295-2.746c-0.833-1.064-1.465-2.446-1.896-4.144
		c-0.434-1.698-0.699-3.395-0.799-5.092s-0.117-3.744-0.05-6.141c0.065-2.396,0.183-4.658,0.349-6.79
		c0.166-2.129,0.333-4.658,0.5-7.588c0.165-2.929,0.249-5.592,0.249-7.988c0-6.39,0.166-11.515,0.499-15.376
		c-2.33,0.134-3.744-0.05-4.243-0.549c-0.499-0.5-0.582-1.847-0.249-4.044v-0.299c0.533-0.399,2.462-0.799,5.791-1.198
		C231.789,103.08,234.518,100.25,238.445,100.25z"/>
	<path fill="#2C2C3D" d="M277.086,128.506c2.196,0.2,4.226,0.549,6.09,1.048c1.863,0.499,3.261,1.232,4.194,2.196
		c0.931,0.966,1.463,2.181,1.597,3.645c0.2,3.529-0.166,5.875-1.098,7.039c-0.933,1.166-3.096,1.748-6.49,1.748
		c-1.932,0.067-3.479-0.3-4.643-1.099c-1.165-0.799-1.947-1.763-2.347-2.896c-0.399-1.131-0.766-2.247-1.098-3.345
		c-0.334-1.098-0.834-2.047-1.498-2.846c-0.666-0.799-1.632-1.198-2.896-1.198c-0.533,0-0.999,0.035-1.398,0.1
		c-2.396,0.599-3.029,2.396-1.896,5.392c1.063,2.796,2.828,4.959,5.292,6.49c0.731,0.399,1.979,0.983,3.744,1.748
		c1.763,0.766,3.36,1.532,4.792,2.296c1.431,0.766,2.911,1.697,4.443,2.796c1.53,1.098,2.746,2.413,3.645,3.944
		c0.898,1.532,1.348,3.262,1.348,5.192c0,4.859-1.564,8.137-4.692,9.834c-3.13,1.698-8.654,2.512-16.574,2.446
		c-1.665,0-3.18-0.05-4.543-0.149c-1.365-0.1-2.913-0.367-4.644-0.799c-1.731-0.432-3.179-0.999-4.343-1.697
		c-1.165-0.699-2.146-1.698-2.945-2.996s-1.198-2.846-1.198-4.643c0-7.322,2.661-10.983,7.987-10.983c2.063,0,3.41,0.1,4.044,0.3
		c0.632,0.2,1.381,0.866,2.247,1.997c0.332,0.467,0.515,1.515,0.549,3.146c0.032,1.632,0.05,3.229,0.05,4.792
		c0,1.565,0.382,2.979,1.148,4.243c0.765,1.266,1.946,1.897,3.544,1.897c2.13,0,3.461-1.248,3.994-3.745
		c0.532-2.496,0.315-5.142-0.649-7.938s-2.28-4.693-3.943-5.691c-0.799-0.532-2.446-1.363-4.942-2.496
		c-2.496-1.131-4.677-2.162-6.54-3.095c-1.864-0.931-3.579-2.162-5.142-3.694c-1.565-1.53-2.347-3.095-2.347-4.692
		c0-1.73,0.449-3.161,1.348-4.293c0.898-1.131,2.247-2.013,4.044-2.646c1.797-0.632,3.777-1.064,5.94-1.298
		c2.163-0.232,4.709-0.35,7.639-0.35C272.159,128.207,274.889,128.307,277.086,128.506z"/>
</g>
<g>
	<g>
		<path fill="#E25B64" d="M211.854,110.88c0.629-0.068,1.449-0.174,2.461-0.314c1.013-0.141,2.589-0.314,4.721-0.525
			c2.129-0.209,3.911-0.244,5.343-0.104s2.15,0.455,2.15,0.943c0,11.32-7.725,16.98-23.166,16.98c-4.962,0-8.945-0.332-11.949-0.998
			c-3.008-0.66-5.537-1.865-7.598-3.613c-2.064-1.746-3.499-4.088-4.302-7.023c-0.802-2.936-1.203-6.814-1.203-11.635
			c0-13.977,7.688-20.965,23.061-20.965c2.726,0,5.063,0.053,7.023,0.156c1.955,0.105,3.946,0.281,5.975,0.525
			c2.027,0.246,3.72,0.611,5.086,1.1c1.358,0.49,2.616,1.102,3.773,1.834c1.149,0.734,1.987,1.678,2.516,2.83
			c0.521,1.154,0.784,2.5,0.784,4.037c0,2.236-1.066,4.211-3.199,5.92c-2.132,1.713-4.698,2.99-7.702,3.828s-5.993,1.414-8.961,1.73
			c-2.971,0.313-5.436,0.334-7.392,0.051c-1.398-0.137-2.41-0.469-3.039-0.996c-0.629-0.521-0.926-1.064-0.89-1.623
			c0.032-0.561,0.188-1.117,0.47-1.678c0.278-0.561,0.557-1.012,0.839-1.363l0.524-0.629c0.419,0.072,0.957,0.141,1.622,0.211
			c0.665,0.072,1.837,0.121,3.514,0.158c1.677,0.035,3.159-0.055,4.453-0.264c1.294-0.211,2.465-0.684,3.514-1.414
			c1.048-0.736,1.572-1.695,1.572-2.885c0-0.975-0.155-1.814-0.474-2.516c-0.311-0.697-0.629-1.221-0.939-1.572
			c-0.318-0.348-0.86-0.629-1.627-0.838c-0.77-0.209-1.33-0.314-1.677-0.314c-0.351,0-1.013,0-1.992,0s-1.536,0-1.677,0
			c-0.839,0-1.833,0.367-2.989,1.1c-1.149,0.734-2.307,1.748-3.456,3.043c-1.156,1.293-2.082,3.107-2.779,5.451
			c-0.697,2.342-0.943,4.908-0.733,7.701c0.278,4.545,1.309,8.09,3.094,10.639c1.778,2.551,4.207,3.828,7.283,3.828
			c3.004,0,5.415-2.129,7.232-6.395C212.097,112.767,212.342,111.298,211.854,110.88z"/>
		<path fill="#E25B64" d="M124.747,91.382c-1.467-1.467-3.145-2.672-5.031-3.615s-3.614-1.555-5.19-1.834
			c-1.568-0.279-3.09-0.42-4.558-0.42c1.398,0,2.83-0.158,4.298-0.473c1.467-0.314,3.039-0.943,4.717-1.887
			c1.677-0.943,3.162-2.111,4.457-3.512c1.29-1.396,2.356-3.316,3.194-5.764c0.702-2.045,1.027-4.361,1.113-6.846
			c-6.361-0.873-11.509-6.256-12.939-13.367c-1.222,0.365-2.473,0.619-3.788,0.619c-5.292,0-9.94-3.158-12.647-7.93
			c-0.958,0.084-2.114,0.234-3.553,0.479c-1.642,0.28-3.181,0.752-4.612,1.416s-2.813,1.484-4.139,2.463s-2.396,2.306-3.199,3.982
			c-0.803,1.678-1.203,3.564-1.203,5.66v46.123c0,1.467,0.155,3.006,0.473,4.611c0.312,1.609,0.926,3.426,1.833,5.451
			c0.907,2.027,2.097,3.824,3.563,5.4c1.468,1.568,3.51,2.881,6.135,3.928c2.616,1.049,5.605,1.572,8.96,1.572
			c3.843,0,7.092-0.158,9.749-0.469c2.652-0.318,5.168-0.912,7.547-1.785c2.375-0.871,4.243-2.076,5.609-3.615
			c1.359-1.537,2.426-3.564,3.195-6.08c0.767-2.516,1.153-5.52,1.153-9.014c0-3.355-0.488-6.34-1.468-8.965
			C127.437,94.896,126.215,92.851,124.747,91.382z M97.494,66.749c0.137-1.117,0.347-2.234,0.629-3.354
			c0.278-1.117,0.82-2.078,1.626-2.883c0.803-0.803,1.765-1.205,2.881-1.205c1.608,0,2.968,0.209,4.088,0.629
			c1.117,0.418,1.956,0.891,2.516,1.414c0.557,0.525,0.977,1.295,1.259,2.307c0.277,1.014,0.434,1.834,0.47,2.463
			s0.054,1.504,0.054,2.621c0,2.377-1.413,5.068-4.247,8.07c-2.826,3.006-5.957,4.508-9.38,4.508V70.837v-1.152
			C97.32,68.847,97.353,67.868,97.494,66.749z M112.379,108.942c-0.492,1.85-1.034,3.213-1.627,4.084
			c-0.593,0.875-1.396,1.539-2.407,1.996c-1.016,0.455-1.8,0.715-2.36,0.783s-1.326,0.105-2.307,0.105
			c-1.535,0-2.761-0.332-3.668-0.998c-0.911-0.662-1.555-2.023-1.938-4.084c-0.387-2.061-0.597-3.969-0.629-5.715
			c-0.036-1.746-0.055-4.682-0.055-8.805c0-2.375,0-4.227,0-5.557l2.516-0.104c1.049,0,2.079,0.07,3.091,0.209
			c1.012,0.141,2.169,0.455,3.463,0.943c1.29,0.492,2.407,1.135,3.354,1.938c0.939,0.807,1.728,1.941,2.356,3.408
			s0.943,3.182,0.943,5.137C113.112,104.872,112.866,107.091,112.379,108.942z"/>
		<path fill="#E25B64" d="M112.277,48.091c0,1.491-1.453,2.7-3.253,2.7c-1.793,0-3.25-1.209-3.25-2.7
			c0-1.488,1.457-2.697,3.25-2.697C110.824,45.394,112.277,46.603,112.277,48.091z"/>
		<path fill="#E25B64" d="M123.229,55.595c0,1.491-1.453,2.701-3.253,2.701c-1.793,0-3.25-1.21-3.25-2.701
			c0-1.488,1.457-2.698,3.25-2.698C121.776,52.896,123.229,54.106,123.229,55.595z"/>
		<path fill="#E25B64" d="M124.458,43.005c0,0.962-0.936,1.74-2.097,1.74c-1.156,0-2.092-0.778-2.092-1.74
			c0-0.959,0.936-1.738,2.092-1.738C123.522,41.267,124.458,42.046,124.458,43.005z"/>
		<ellipse fill="#E25B64" cx="128.102" cy="61.421" rx="2.097" ry="1.74"/>
		<path fill="#E25B64" d="M108.923,41.021c0,1.023-0.701,1.852-1.576,1.852c-0.867,0-1.572-0.828-1.572-1.852
			c0-1.022,0.705-1.85,1.572-1.85C108.222,39.171,108.923,39.998,108.923,41.021z"/>
		<path fill="#E25B64" d="M120.294,42.872c0,0,0.25,0,0.557,0c0.304,0,0.554,0,0.554,0s-0.25,0-0.554,0
			C120.544,42.872,120.294,42.872,120.294,42.872z"/>
		<ellipse fill="#E25B64" cx="126.007" cy="50.791" rx="1.097" ry="0.925"/>
		<ellipse fill="#E25B64" cx="101.735" cy="44.26" rx="1.097" ry="0.925"/>
		<ellipse fill="#E25B64" cx="115.207" cy="48.271" rx="1.097" ry="0.926"/>
	</g>
	<path fill="#E25B64" d="M141.743,83.671h0.719c1.914,0,3.453,0.531,4.617,1.592c1.162,1.061,1.898,2.43,2.207,4.104
		c0.309,1.678,0.494,3.54,0.564,5.593c0.066,2.053,0,4.105-0.205,6.158c-0.139,3.012-0.275,6.74-0.41,11.186
		c-0.07,1.779-0.123,3.045-0.154,3.797c-0.037,0.754-0.088,1.729-0.154,2.926c-0.07,1.197-0.139,2.002-0.205,2.412
		c-0.07,0.408-0.189,0.99-0.359,1.742c-0.174,0.756-0.344,1.232-0.514,1.438c-0.172,0.205-0.447,0.514-0.82,0.924
		c-0.377,0.41-0.736,0.633-1.078,0.666c-0.344,0.037-0.822,0.139-1.438,0.309s-1.215,0.256-1.795,0.256c-0.582,0-1.352,0-2.311,0
		c-1.436,0.068-2.633-0.359-3.59-1.283c-0.961-0.922-1.678-2.221-2.156-3.898c-0.479-1.676-0.82-3.506-1.025-5.49
		c-0.205-1.982-0.275-4.207-0.205-6.67c0.066-2.465,0.152-4.736,0.256-6.826c0.104-2.085,0.221-4.258,0.359-6.516
		c0.137-2.258,0.205-4.002,0.205-5.234c0-1.503,0.271-2.785,0.822-3.848c0.545-1.06,1.264-1.813,2.152-2.258
		c0.891-0.444,1.678-0.734,2.361-0.872C140.271,83.741,140.987,83.671,141.743,83.671z"/>
	<path fill="#E25B64" d="M182.33,76.704c-0.036-0.42-0.051-0.697-0.051-0.84c0.068-1.605-0.455-2.688-1.572-3.248
		c-0.95-0.476-2.848-0.772-5.668-0.895c0.057-1.878,0.072-3.414,0.048-4.596l-0.734-7.967c-1.116-4.961-3.741-7.443-7.861-7.443
		c-4.124,0-6.99,2.972-8.596,8.91l-1.362,6.395c-0.145,1.674-0.258,3.587-0.343,5.713c-1.054,0.149-1.912,0.299-2.595,0.449
		c-0.024-0.063-0.001,0-3.72-0.219c-2.287-0.135-2.217-0.581-7.414-0.581l-1.951-0.103c-3.488,0.068-5.232,1.129-5.232,3.181
		c0,1.026,0.271,1.884,0.82,2.565c0.957,1.027,3.42,1.54,7.387,1.54c1.301,0,2.275-0.016,2.926-0.052
		c0.648-0.033,1.367-0.137,2.156-0.308c0.67-0.145,3.973-0.094,5.127-0.352c0.621,0.077,1.396,0.101,2.342,0.064
		c-0.018,1.353-0.027,2.76-0.027,4.243c0,2.516-0.087,5.311-0.26,8.385c-0.178,3.076-0.354,5.732-0.528,7.967
		c-0.173,2.238-0.296,4.613-0.365,7.129c-0.068,2.516-0.054,4.662,0.055,6.447c0.102,1.779,0.383,3.564,0.839,5.342
		c0.451,1.787,1.113,3.236,1.987,4.354c0.875,1.119,2.028,2.082,3.463,2.883c1.432,0.803,3.195,1.346,5.292,1.623
		c2.097,0.211,3.843,0.352,5.241,0.42c1.395,0.068,2.479,0.086,3.249,0.055c0.771-0.037,1.345-0.246,1.731-0.629
		c0.384-0.383,0.607-0.701,0.68-0.947c0.068-0.242,0.138-0.715,0.21-1.414c0.068-0.697,0.173-1.258,0.314-1.676l-0.943-0.943
		c-0.629-0.557-1.294-2.357-1.992-5.4c-0.697-3.037-1.116-7.037-1.258-12c-0.141-4.473,0.069-11.039,0.629-19.707
		c0.126-1.94,0.234-3.738,0.328-5.408c1.127,0.008,2.127,0.041,2.986,0.102c0.977,0.07,1.765,0,2.357-0.209
		c0.593-0.211,1.048-0.35,1.366-0.42c0.311-0.068,0.538-0.297,0.68-0.682c0.137-0.383,0.224-0.662,0.26-0.838
		C182.366,77.421,182.366,77.122,182.33,76.704z"/>
</g>
</svg>
