<?xml version="1.0" encoding="utf-8"?>
<!-- Generator: Adobe Illustrator 16.0.0, SVG Export Plug-In . SVG Version: 6.00 Build 0)  -->
<!DOCTYPE svg PUBLIC "-//W3C//DTD SVG 1.1//EN" "http://www.w3.org/Graphics/SVG/1.1/DTD/svg11.dtd">
<svg version="1.1" id="Layer_1" xmlns="http://www.w3.org/2000/svg" xmlns:xlink="http://www.w3.org/1999/xlink" x="0px" y="0px"
	 width="595.28px" height="179px" viewBox="0 0 595.28 179" enable-background="new 0 0 595.28 179" xml:space="preserve">
<g>
	<g>
		<path fill="#FFFFFF" d="M152.305,69.333c1.955,0,3.721,0.246,5.293,0.734s2.794,1.1,3.669,1.834
			c0.873,0.732,1.606,1.451,2.201,2.148c0.593,0.699,0.96,1.293,1.101,1.781l0.314,0.734c0.068-0.209,0.191-0.473,0.367-0.787
			c0.174-0.314,0.523-0.871,1.048-1.676c0.524-0.803,1.064-1.52,1.625-2.148c0.559-0.629,1.239-1.207,2.044-1.73
			c0.803-0.523,1.589-0.82,2.358-0.891l4.508-0.105c0.978,0,1.554,2.621,1.729,7.861c0.173,5.242,0.139,10.643-0.105,16.194
			c-0.245,5.561-0.157,10.014,0.263,13.367c0,1.258-0.053,2.201-0.157,2.83c-0.105,0.629-0.314,1.275-0.629,1.941
			c-0.314,0.664-0.857,1.135-1.625,1.412c-0.77,0.279-1.782,0.42-3.04,0.42c-2.306,0-4.158-0.242-5.556-0.734
			c-1.398-0.486-2.447-1.309-3.145-2.465c-0.699-1.148-1.153-2.406-1.362-3.773c-0.21-1.359-0.314-3.23-0.314-5.605
			c0,1.398-0.263,2.793-0.786,4.193c-0.524,1.398-1.328,2.76-2.411,4.088c-1.085,1.33-2.639,2.393-4.665,3.195
			c-2.027,0.805-4.402,1.207-7.127,1.207c-5.592,0-9.505-1.902-11.741-5.711c-2.237-3.811-3.354-9.629-3.354-17.455
			c0-3.842,0.278-7.006,0.838-9.489c0.559-2.48,1.572-4.611,3.04-6.393c1.467-1.781,3.458-3.057,5.975-3.826
			C145.177,69.718,148.39,69.333,152.305,69.333z M154.401,73.421c-1.957,0-3.495,1.398-4.611,4.193
			c-1.119,2.793-1.678,5.938-1.678,9.434c0,1.887,0.068,3.792,0.21,5.715c0.139,1.922,0.419,3.965,0.839,6.129
			c0.419,2.17,1.048,3.916,1.887,5.242c0.838,1.33,1.887,1.992,3.145,1.992c0.838,0,1.677-0.508,2.516-1.523
			c0.838-1.012,1.641-2.492,2.411-4.453c0.768-1.955,1.396-4.611,1.887-7.965c0.487-3.356,0.733-7.165,0.733-11.426
			c-0.07-0.211-0.193-0.475-0.367-0.785c-0.175-0.318-0.508-0.893-0.995-1.73c-0.49-0.84-1.015-1.59-1.572-2.254
			c-0.561-0.664-1.242-1.258-2.044-1.783C155.956,73.683,155.169,73.421,154.401,73.421z"/>
		<path fill="#FFFFFF" d="M196.854,70.748c1.536,1.225,2.307,3.479,2.307,6.762c2.654-2.584,6.043-4.629,10.167-6.133
			c4.122-1.502,8.42-2.252,12.894-2.252c1.746,0,3.249,0.297,4.507,0.891s2.307,1.484,3.145,2.672
			c0.839,1.189,1.521,2.5,2.044,3.932c0.524,1.434,0.926,3.197,1.206,5.293c0.278,2.096,0.453,4.07,0.524,5.92
			c0.068,1.856,0.104,4.075,0.104,6.659c0,6.5-1.729,11.322-5.188,14.467s-8.229,4.717-14.309,4.717
			c-0.979,0-1.904-0.055-2.777-0.156c-0.875-0.107-1.609-0.209-2.201-0.318c-0.595-0.102-1.258-0.328-1.992-0.68
			c-0.733-0.346-1.294-0.592-1.677-0.732c-0.386-0.141-0.943-0.488-1.678-1.049c-0.733-0.561-1.224-0.926-1.467-1.102
			c-0.246-0.174-0.786-0.629-1.625-1.359c-0.839-0.738-1.399-1.207-1.677-1.418c0,1.398,0.034,3.793,0.104,7.18
			c0.068,3.391,0.104,6.252,0.104,8.594c0,2.344-0.07,4.07-0.209,5.191c-0.071,2.584-0.142,5.137-0.21,7.652
			c-0.07,2.516-0.21,4.752-0.419,6.709c-0.21,1.955-1.066,3.527-2.568,4.717c-1.504,1.186-3.722,1.781-6.656,1.781
			c-1.258,0.068-2.324-0.301-3.197-1.102c-0.875-0.803-1.556-2.01-2.044-3.615c-0.49-1.609-0.875-3.268-1.153-4.98
			c-0.28-1.713-0.438-3.811-0.472-6.289c-0.036-2.48-0.052-4.682-0.052-6.602c0-1.922,0.034-4.229,0.104-6.918
			c0.068-2.691,0.104-4.771,0.104-6.238s-0.036-3.688-0.104-6.658c-0.07-2.967-0.123-5.66-0.157-8.066
			c-0.036-2.416-0.053-5.156-0.053-8.23c0-3.077,0.105-5.766,0.314-8.073c0.21-2.307,0.506-4.488,0.891-6.551
			c0.384-2.061,0.926-3.65,1.625-4.77c0.698-1.117,1.572-1.678,2.621-1.678C192.276,68.914,195.316,69.527,196.854,70.748z
			 M205.711,77.039c-2.552,1.359-4.56,3.092-6.027,5.188c0.068,1.398,0,4.371-0.209,8.911c-0.21,4.543-0.314,7.688-0.314,9.434
			c0.697,0.492,1.887,1.486,3.563,2.986c1.677,1.504,3.161,2.711,4.455,3.617c1.292,0.908,2.358,1.363,3.197,1.363
			c2.025,0,3.475-1.258,4.35-3.773c0.873-2.516,1.311-6.5,1.311-11.949c0-0.139,0-0.385,0-0.734c0-6.221-0.21-10.624-0.629-13.208
			c-0.419-2.586-1.572-3.879-3.459-3.879C210.34,74.994,208.261,75.675,205.711,77.039z"/>
		<path fill="#FFFFFF" d="M251.885,70.748c1.536,1.225,2.307,3.479,2.307,6.762c2.654-2.584,6.043-4.629,10.167-6.133
			c4.123-1.502,8.421-2.252,12.894-2.252c1.746,0,3.249,0.297,4.507,0.891c1.259,0.594,2.307,1.484,3.146,2.672
			c0.838,1.189,1.52,2.5,2.044,3.932c0.523,1.434,0.925,3.197,1.205,5.293c0.278,2.096,0.454,4.07,0.524,5.92
			c0.068,1.856,0.104,4.075,0.104,6.659c0,6.5-1.729,11.322-5.188,14.467s-8.229,4.717-14.309,4.717
			c-0.979,0-1.904-0.055-2.777-0.156c-0.875-0.107-1.608-0.209-2.201-0.318c-0.595-0.102-1.258-0.328-1.992-0.68
			c-0.733-0.346-1.294-0.592-1.677-0.732c-0.385-0.141-0.943-0.488-1.677-1.049c-0.734-0.561-1.224-0.926-1.468-1.102
			c-0.246-0.174-0.786-0.629-1.625-1.359c-0.839-0.738-1.398-1.207-1.677-1.418c0,1.398,0.034,3.793,0.104,7.18
			c0.068,3.391,0.104,6.252,0.104,8.594c0,2.344-0.07,4.07-0.209,5.191c-0.07,2.584-0.142,5.137-0.21,7.652
			c-0.07,2.516-0.21,4.752-0.419,6.709c-0.21,1.955-1.066,3.527-2.568,4.717c-1.504,1.186-3.722,1.781-6.656,1.781
			c-1.258,0.068-2.324-0.301-3.197-1.102c-0.875-0.803-1.556-2.01-2.044-3.615c-0.489-1.609-0.875-3.268-1.153-4.98
			c-0.279-1.713-0.438-3.811-0.472-6.289c-0.036-2.48-0.052-4.682-0.052-6.602c0-1.922,0.034-4.229,0.104-6.918
			c0.068-2.691,0.104-4.771,0.104-6.238s-0.036-3.688-0.104-6.658c-0.07-2.967-0.123-5.66-0.157-8.066
			c-0.036-2.416-0.053-5.156-0.053-8.23c0-3.077,0.105-5.766,0.314-8.073c0.21-2.307,0.506-4.488,0.892-6.551
			c0.383-2.061,0.925-3.65,1.624-4.77c0.698-1.117,1.572-1.678,2.621-1.678C247.307,68.914,250.347,69.527,251.885,70.748z
			 M260.743,77.039c-2.552,1.359-4.56,3.092-6.027,5.188c0.069,1.398,0,4.371-0.209,8.911c-0.21,4.543-0.314,7.688-0.314,9.434
			c0.697,0.492,1.887,1.486,3.563,2.986c1.677,1.504,3.161,2.711,4.455,3.617c1.292,0.908,2.358,1.363,3.197,1.363
			c2.025,0,3.476-1.258,4.35-3.773c0.873-2.516,1.311-6.5,1.311-11.949c0-0.139,0-0.385,0-0.734c0-6.221-0.21-10.624-0.629-13.208
			c-0.419-2.586-1.572-3.879-3.459-3.879C265.372,74.994,263.293,75.675,260.743,77.039z"/>
		<path fill="#FFFFFF" d="M300.941,68.914c2.586,0,4.645,0.961,6.186,2.883c1.535,1.924,2.498,4.297,2.885,7.129
			c0.383,2.828,0.629,5.922,0.729,9.275c0.109,3.356,0.123,6.463,0.055,9.331c-0.068,2.865,0.174,5.258,0.734,7.182
			c0.557,1.924,1.467,2.881,2.725,2.881c2.863,0.068,5.205-1.678,7.023-5.24c1.818-3.564,2.725-8.42,2.725-14.571
			c0-0.977-0.018-2.271-0.053-3.879c-0.037-1.609-0.07-2.795-0.102-3.564c-0.037-0.77-0.021-1.746,0.051-2.936
			c0.068-1.188,0.191-2.078,0.369-2.672c0.172-0.594,0.434-1.275,0.783-2.045c0.352-0.768,0.803-1.326,1.363-1.676
			c0.557-0.35,1.258-0.717,2.096-1.102c0.84-0.383,1.836-0.645,2.986-0.785c1.156-0.141,2.465-0.211,3.932-0.211
			c1.605,0,2.949,0.629,4.035,1.887c1.084,1.258,1.887,3.023,2.414,5.293c0.52,2.273,0.889,4.734,1.098,7.391
			c0.211,2.656,0.279,5.643,0.211,8.961c-0.072,3.322-0.174,6.379-0.314,9.174c-0.141,2.797-0.279,5.746-0.42,8.855
			c-0.141,3.107-0.209,5.537-0.209,7.287c0,3.004-0.352,6.029-1.049,9.064c-0.697,3.043-1.781,5.994-3.25,8.859
			c-1.467,2.867-3.23,5.414-5.291,7.652c-2.064,2.234-4.563,4.02-7.496,5.346c-2.936,1.326-6.117,1.992-9.539,1.992
			c-7.967,0-13.805-3.008-17.505-9.016c-2.726-4.475-3.495-8.979-2.306-13.521c1.048-3.914,3.213-6.148,6.499-6.709
			c0.277,0,0.523-0.035,0.734-0.104c2.584-0.211,4.576,0.191,5.975,1.207c1.395,1.012,2.219,2.355,2.465,4.033
			c0.242,1.678,0.365,3.514,0.365,5.502c0,1.994-0.055,3.859-0.156,5.609c-0.107,1.746,0.188,3.213,0.891,4.402
			c0.697,1.186,1.85,1.781,3.459,1.781c5.1,0,8.316-10.24,9.643-30.713c0.279-4.539,0.42-8.805,0.42-12.787
			c0,3.285-2.027,6.463-6.08,9.539s-8.176,4.611-12.369,4.611c-4.543,0-8.193-1.658-10.954-4.977
			c-2.762-3.318-4.141-8.473-4.141-15.463c0-1.396-0.036-3.145-0.104-5.243c-0.07-2.096-0.105-3.736-0.105-4.926
			s0.017-2.584,0.053-4.193c0.034-1.607,0.157-2.865,0.367-3.773c0.209-0.908,0.506-1.869,0.891-2.883
			c0.383-1.012,0.892-1.781,1.521-2.307c0.629-0.523,1.415-0.959,2.358-1.309S299.613,68.914,300.941,68.914z"/>
		<path fill="#FFFFFF" d="M503.668,96.588c0.629-0.068,1.449-0.174,2.461-0.314s2.588-0.314,4.721-0.525
			c2.129-0.209,3.91-0.244,5.342-0.104s2.15,0.455,2.15,0.943c0,11.32-7.725,16.98-23.166,16.98c-4.961,0-8.945-0.332-11.949-0.998
			c-3.008-0.66-5.537-1.865-7.598-3.613c-2.064-1.746-3.498-4.088-4.301-7.023s-1.203-6.814-1.203-11.635
			c0-13.977,7.688-20.965,23.061-20.965c2.725,0,5.063,0.053,7.023,0.156c1.955,0.105,3.945,0.281,5.975,0.525
			c2.027,0.246,3.719,0.611,5.086,1.1c1.357,0.49,2.615,1.102,3.773,1.834c1.148,0.734,1.986,1.678,2.516,2.83
			c0.52,1.154,0.783,2.5,0.783,4.037c0,2.236-1.066,4.211-3.199,5.92c-2.131,1.713-4.697,2.99-7.701,3.829
			c-3.004,0.838-5.994,1.414-8.961,1.73c-2.971,0.313-5.436,0.334-7.393,0.051c-1.398-0.137-2.41-0.469-3.039-0.996
			c-0.629-0.521-0.926-1.064-0.889-1.624c0.031-0.561,0.188-1.117,0.469-1.678c0.279-0.561,0.557-1.012,0.84-1.363l0.523-0.629
			c0.42,0.072,0.957,0.141,1.623,0.211c0.664,0.072,1.836,0.121,3.514,0.158c1.676,0.035,3.158-0.055,4.453-0.264
			c1.293-0.211,2.465-0.684,3.514-1.414c1.047-0.736,1.572-1.695,1.572-2.885c0-0.975-0.156-1.814-0.475-2.516
			c-0.311-0.697-0.629-1.221-0.939-1.572c-0.318-0.348-0.859-0.629-1.627-0.838c-0.77-0.209-1.33-0.314-1.676-0.314
			c-0.352,0-1.014,0-1.992,0c-0.98,0-1.537,0-1.678,0c-0.838,0-1.832,0.367-2.988,1.1c-1.15,0.734-2.307,1.748-3.457,3.043
			c-1.156,1.293-2.082,3.107-2.779,5.451c-0.697,2.342-0.943,4.909-0.732,7.702c0.277,4.545,1.309,8.09,3.094,10.639
			c1.777,2.551,4.207,3.828,7.283,3.828c3.004,0,5.414-2.129,7.232-6.395C503.91,98.475,504.154,97.006,503.668,96.588z"/>
		<path fill="#FFFFFF" d="M122.082,39.373c-1.218,0.365-2.47,0.619-3.786,0.619c-2.676,0-5.154-0.875-7.335-2.287
			c-0.197,0.708-0.353,1.504-0.427,2.488c-0.104,1.398-0.157,2.586-0.157,3.564s0.017,2.289,0.053,3.93
			c0.034,1.643,0.052,2.85,0.052,3.617c0,1.398,0,2.447,0,3.145c0,0.699-0.018,1.678-0.052,2.936
			c-0.036,1.258-0.105,2.236-0.21,2.934c-0.104,0.699-0.262,1.521-0.472,2.465c-0.209,0.943-0.472,1.676-0.786,2.201
			c-0.314,0.523-0.681,1.066-1.101,1.623c-0.419,0.561-0.943,0.943-1.572,1.154c-0.629,0.209-1.329,0.314-2.096,0.314
			c-1.189,0-2.133-0.42-2.831-1.258c-0.699-0.84-1.153-2.078-1.363-3.721c-0.209-1.643-0.314-3.18-0.314-4.613
			c0-1.432,0.053-3.283,0.157-5.555c0.105-2.271,0.157-3.861,0.157-4.77c0-0.768,0.053-1.992,0.157-3.67
			c0.105-1.676,0.174-2.969,0.21-3.878c0.034-0.907-0.123-1.991-0.472-3.249c-0.351-1.258-0.875-2.218-1.572-2.883
			c-0.7-0.664-1.782-1.258-3.25-1.781c-1.468-0.525-3.32-0.787-5.556-0.787c-1.399,0-2.516,0.07-3.354,0.21
			c-0.839,0.142-1.766,0.456-2.778,0.943c-1.014,0.489-1.8,1.241-2.358,2.253c-0.56,1.015-1.137,2.412-1.729,4.193
			c-0.595,1.782-1.048,4.002-1.362,6.656c-0.314,2.656-0.561,5.889-0.734,9.695c-0.175,3.811-0.262,8.229-0.262,13.262
			c0.069,11.602,0.629,20.686,1.677,27.252c1.048,6.572,2.463,11.008,4.245,13.313c1.782,2.307,4.175,3.459,7.18,3.459
			c6.638,0,9.958-6.289,9.958-18.867c0-5.241,0.174-8.997,0.524-11.27c0.349-2.271,1.222-3.406,2.621-3.406
			c1.258,0,2.217,0.229,2.882,0.68c0.664,0.455,1.222,1.645,1.677,3.564c0.454,1.924,0.681,4.703,0.681,8.336
			c0,2.797,0.053,5.031,0.157,6.707c0.105,1.678,0.349,3.529,0.734,5.557c0.383,2.027,0.96,3.6,1.73,4.717
			c0.768,1.121,1.851,2.061,3.249,2.83c1.397,0.77,3.108,1.152,5.137,1.152c1.396,0,2.637-0.332,3.721-0.996
			c1.083-0.662,1.974-1.5,2.673-2.516c0.698-1.014,1.292-2.322,1.782-3.93c0.488-1.609,0.855-3.039,1.101-4.299
			c0.244-1.258,0.419-2.83,0.524-4.717c0.104-1.887,0.157-3.299,0.157-4.246c0-0.939,0-2.146,0-3.616c0-0.346,0-0.629,0-0.838
			V50.585C125.74,48.199,123.054,44.193,122.082,39.373z"/>
		<path fill="#FFFFFF" d="M416.561,77.089c-1.467-1.467-3.145-2.672-5.031-3.615s-3.615-1.555-5.191-1.834
			c-1.568-0.279-3.09-0.42-4.557-0.42c1.398,0,2.83-0.158,4.297-0.473s3.039-0.943,4.717-1.887s3.162-2.111,4.457-3.512
			c1.291-1.396,2.357-3.316,3.195-5.764c0.701-2.045,1.027-4.361,1.113-6.846c-6.361-0.873-11.51-6.256-12.939-13.367
			c-1.223,0.365-2.473,0.619-3.789,0.619c-5.291,0-9.939-3.158-12.646-7.93c-0.959,0.084-2.115,0.234-3.553,0.479
			c-1.643,0.28-3.182,0.752-4.613,1.416s-2.813,1.484-4.139,2.463s-2.396,2.306-3.199,3.982c-0.803,1.678-1.203,3.564-1.203,5.66
			v46.124c0,1.467,0.156,3.006,0.473,4.611c0.313,1.609,0.926,3.426,1.834,5.451c0.906,2.027,2.096,3.824,3.563,5.4
			c1.469,1.568,3.51,2.881,6.135,3.928c2.617,1.049,5.605,1.572,8.961,1.572c3.842,0,7.092-0.158,9.748-0.469
			c2.652-0.318,5.168-0.912,7.547-1.785c2.375-0.871,4.244-2.076,5.609-3.615c1.359-1.537,2.426-3.564,3.195-6.08
			c0.768-2.516,1.154-5.52,1.154-9.014c0-3.356-0.488-6.34-1.469-8.965C419.25,80.603,418.027,78.558,416.561,77.089z
			 M389.307,52.457c0.137-1.117,0.348-2.234,0.629-3.354c0.279-1.117,0.82-2.078,1.627-2.883c0.803-0.803,1.764-1.205,2.881-1.205
			c1.607,0,2.967,0.209,4.088,0.629c1.117,0.418,1.955,0.891,2.516,1.414c0.557,0.525,0.977,1.295,1.258,2.307
			c0.277,1.014,0.434,1.834,0.471,2.463c0.035,0.629,0.053,1.504,0.053,2.621c0,2.377-1.412,5.068-4.246,8.07
			c-2.826,3.006-5.957,4.508-9.381,4.508V56.544v-1.152C389.133,54.554,389.166,53.576,389.307,52.457z M404.191,94.65
			c-0.492,1.85-1.033,3.213-1.627,4.084c-0.592,0.875-1.395,1.539-2.406,1.996c-1.016,0.455-1.801,0.715-2.361,0.783
			s-1.326,0.105-2.307,0.105c-1.535,0-2.76-0.332-3.668-0.998c-0.91-0.662-1.555-2.023-1.938-4.084
			c-0.387-2.061-0.596-3.969-0.629-5.715c-0.035-1.747-0.055-4.682-0.055-8.805c0-2.375,0-4.227,0-5.557l2.516-0.104
			c1.049,0,2.08,0.07,3.092,0.209c1.012,0.141,2.168,0.455,3.463,0.943c1.289,0.492,2.406,1.135,3.354,1.938
			c0.939,0.807,1.729,1.941,2.357,3.408s0.943,3.182,0.943,5.137C404.926,90.58,404.68,92.799,404.191,94.65z"/>
		<ellipse fill="#FFFFFF" cx="118.398" cy="35.187" rx="3.252" ry="2.699"/>
		<ellipse fill="#FFFFFF" cx="129.35" cy="42.691" rx="3.252" ry="2.699"/>
		<ellipse fill="#FFFFFF" cx="131.736" cy="30.101" rx="2.095" ry="1.74"/>
		<ellipse fill="#FFFFFF" cx="116.72" cy="28.117" rx="1.575" ry="1.851"/>
		<ellipse fill="#FFFFFF" cx="130.221" cy="29.967" rx="0.554" ry="0.001"/>
		<ellipse fill="#FFFFFF" cx="123.481" cy="29.042" rx="1.097" ry="0.926"/>
		<ellipse fill="#FFFFFF" cx="110.698" cy="31.841" rx="1.097" ry="0.926"/>
		<ellipse fill="#FFFFFF" cx="124.578" cy="35.365" rx="1.097" ry="0.924"/>
		<path fill="#FFFFFF" d="M404.09,33.798c0,1.491-1.453,2.7-3.252,2.7c-1.793,0-3.25-1.209-3.25-2.7c0-1.488,1.457-2.697,3.25-2.697
			C402.637,31.101,404.09,32.31,404.09,33.798z"/>
		<path fill="#FFFFFF" d="M415.043,41.302c0,1.491-1.453,2.701-3.254,2.701c-1.793,0-3.25-1.21-3.25-2.701
			c0-1.488,1.457-2.698,3.25-2.698C413.59,38.604,415.043,39.814,415.043,41.302z"/>
		<path fill="#FFFFFF" d="M416.271,28.712c0,0.962-0.936,1.74-2.098,1.74c-1.156,0-2.092-0.778-2.092-1.74
			c0-0.959,0.936-1.738,2.092-1.738C415.336,26.974,416.271,27.753,416.271,28.712z"/>
		<ellipse fill="#FFFFFF" cx="419.915" cy="47.128" rx="2.097" ry="1.74"/>
		<path fill="#FFFFFF" d="M400.736,26.728c0,1.023-0.701,1.852-1.576,1.852c-0.867,0-1.572-0.828-1.572-1.852
			c0-1.022,0.705-1.85,1.572-1.85C400.035,24.878,400.736,25.706,400.736,26.728z"/>
		<path fill="#FFFFFF" d="M412.107,28.58c0,0,0.25,0,0.557,0c0.303,0,0.553,0,0.553,0s-0.25,0-0.553,0
			C412.357,28.58,412.107,28.58,412.107,28.58z"/>
		<ellipse fill="#FFFFFF" cx="417.82" cy="36.499" rx="1.098" ry="0.925"/>
		<ellipse fill="#FFFFFF" cx="393.548" cy="29.967" rx="1.097" ry="0.925"/>
		<ellipse fill="#FFFFFF" cx="407.02" cy="33.978" rx="1.098" ry="0.926"/>
	</g>
	<path fill="#FFFFFF" d="M433.557,69.378h0.719c1.914,0,3.453,0.531,4.617,1.592c1.162,1.061,1.898,2.43,2.207,4.104
		c0.309,1.678,0.494,3.54,0.564,5.593c0.066,2.053,0,4.105-0.205,6.158c-0.139,3.012-0.275,6.741-0.41,11.186
		c-0.07,1.779-0.123,3.045-0.154,3.797c-0.037,0.754-0.088,1.729-0.154,2.926c-0.07,1.197-0.139,2.002-0.205,2.412
		c-0.07,0.408-0.189,0.99-0.359,1.742c-0.174,0.756-0.344,1.232-0.514,1.438c-0.172,0.205-0.447,0.514-0.82,0.924
		c-0.377,0.41-0.736,0.633-1.078,0.666c-0.344,0.037-0.822,0.139-1.438,0.309s-1.215,0.256-1.795,0.256c-0.582,0-1.352,0-2.311,0
		c-1.436,0.068-2.633-0.359-3.59-1.283c-0.961-0.922-1.678-2.221-2.156-3.898c-0.479-1.676-0.82-3.506-1.025-5.49
		c-0.205-1.982-0.275-4.207-0.205-6.67c0.066-2.465,0.152-4.736,0.256-6.827c0.104-2.085,0.221-4.258,0.359-6.516
		c0.137-2.258,0.205-4.002,0.205-5.234c0-1.503,0.271-2.785,0.822-3.848c0.545-1.06,1.264-1.813,2.152-2.258
		c0.891-0.444,1.678-0.734,2.361-0.872C432.084,69.449,432.801,69.378,433.557,69.378z"/>
	<path fill="#FFFFFF" d="M474.143,62.412c-0.035-0.42-0.051-0.697-0.051-0.84c0.068-1.605-0.455-2.688-1.572-3.248
		c-0.949-0.476-2.848-0.772-5.668-0.895c0.057-1.878,0.072-3.414,0.049-4.596l-0.734-7.967c-1.117-4.961-3.742-7.443-7.861-7.443
		c-4.125,0-6.99,2.972-8.596,8.91l-1.363,6.395c-0.145,1.674-0.258,3.587-0.342,5.713c-1.055,0.149-1.912,0.299-2.596,0.449
		c-0.023-0.063,0,0-3.719-0.219c-2.287-0.135-2.217-0.581-7.414-0.581l-1.951-0.103c-3.488,0.068-5.232,1.129-5.232,3.181
		c0,1.026,0.271,1.884,0.82,2.565c0.957,1.027,3.42,1.54,7.387,1.54c1.301,0,2.275-0.016,2.926-0.052
		c0.648-0.033,1.367-0.137,2.156-0.308c0.67-0.145,3.973-0.094,5.127-0.352c0.621,0.077,1.396,0.101,2.342,0.064
		c-0.018,1.353-0.027,2.76-0.027,4.243c0,2.516-0.088,5.311-0.26,8.385c-0.178,3.076-0.355,5.732-0.529,7.967
		c-0.172,2.238-0.295,4.614-0.365,7.129c-0.068,2.516-0.053,4.662,0.055,6.447c0.102,1.779,0.383,3.564,0.84,5.342
		c0.451,1.787,1.113,3.236,1.986,4.354c0.875,1.119,2.029,2.082,3.463,2.883c1.432,0.803,3.195,1.346,5.293,1.623
		c2.096,0.211,3.842,0.352,5.24,0.42c1.395,0.068,2.48,0.086,3.25,0.055c0.77-0.037,1.344-0.246,1.73-0.629
		c0.385-0.383,0.607-0.701,0.68-0.947c0.068-0.242,0.139-0.715,0.211-1.414c0.068-0.697,0.172-1.258,0.314-1.676l-0.943-0.943
		c-0.629-0.557-1.295-2.357-1.992-5.4c-0.697-3.037-1.117-7.037-1.258-12c-0.141-4.473,0.068-11.04,0.629-19.708
		c0.125-1.94,0.234-3.738,0.328-5.408c1.127,0.008,2.127,0.041,2.986,0.102c0.977,0.07,1.764,0,2.357-0.209
		c0.592-0.211,1.047-0.35,1.365-0.42c0.311-0.068,0.539-0.297,0.68-0.682c0.137-0.383,0.225-0.662,0.26-0.838
		C474.18,63.128,474.18,62.83,474.143,62.412z"/>
</g>
</svg>
